<?xml version="1.0" encoding="UTF-8"?>
<svg version="1.1" xmlns="http://www.w3.org/2000/svg" width="500" height="500">
<path d="M0 0 C2.24204366 1.93253595 3.26180467 3.2746465 4.3203125 6 C7.64721667 4.17556868 10.55688636 2.05242663 13.5078125 -0.3125 C27.48826263 -11.15821745 42.46880163 -15.84931085 60.3203125 -14 C69.89752069 -12.28496674 78.09249177 -9.15277662 86.3203125 -4 C86.98289062 -3.60296875 87.64546875 -3.2059375 88.328125 -2.796875 C90.0078125 -1.75 90.0078125 -1.75 92.3203125 0 C92.3203125 0.66 92.3203125 1.32 92.3203125 2 C92.9803125 2 93.6403125 2 94.3203125 2 C94.3203125 2.66 94.3203125 3.32 94.3203125 4 C94.9803125 4 95.6403125 4 96.3203125 4 C107.83678704 17.3395458 114.2818413 32.59370811 113.7109375 50.4140625 C112.67811789 59.89534656 110.50077661 69.88622674 105.3203125 78 C104.82789063 78.78503906 104.33546875 79.57007813 103.828125 80.37890625 C99.7232316 86.57407946 95.0174891 92.19627065 89.3203125 97 C88.6603125 97 88.0003125 97 87.3203125 97 C87.3203125 97.66 87.3203125 98.32 87.3203125 99 C86.6603125 99 86.0003125 99 85.3203125 99 C85.3203125 99.66 85.3203125 100.32 85.3203125 101 C84.6603125 101 84.0003125 101 83.3203125 101 C83.3203125 101.66 83.3203125 102.32 83.3203125 103 C82.6603125 103 82.0003125 103 81.3203125 103 C81.3203125 103.66 81.3203125 104.32 81.3203125 105 C80.6603125 105 80.0003125 105 79.3203125 105 C79.3203125 105.66 79.3203125 106.32 79.3203125 107 C78.6603125 107 78.0003125 107 77.3203125 107 C77.3203125 107.66 77.3203125 108.32 77.3203125 109 C75.9453125 110.625 75.9453125 110.625 74.3203125 112 C73.6603125 112 73.0003125 112 72.3203125 112 C72.3203125 112.66 72.3203125 113.32 72.3203125 114 C71.6603125 114 71.0003125 114 70.3203125 114 C70.3203125 114.66 70.3203125 115.32 70.3203125 116 C69.6603125 116 69.0003125 116 68.3203125 116 C68.3203125 116.66 68.3203125 117.32 68.3203125 118 C67.6603125 118 67.0003125 118 66.3203125 118 C66.3203125 118.66 66.3203125 119.32 66.3203125 120 C65.6603125 120 65.0003125 120 64.3203125 120 C64.3203125 120.66 64.3203125 121.32 64.3203125 122 C63.6603125 122 63.0003125 122 62.3203125 122 C62.083125 122.56203125 61.8459375 123.1240625 61.6015625 123.703125 C60.03083553 126.51894042 58.10559786 128.47955416 55.8203125 130.75 C54.62921875 131.94882812 54.62921875 131.94882812 53.4140625 133.171875 C51.3203125 135 51.3203125 135 49.3203125 135 C48.9903125 135.99 48.6603125 136.98 48.3203125 138 C47.6603125 138 47.0003125 138 46.3203125 138 C46.3203125 138.66 46.3203125 139.32 46.3203125 140 C45.6603125 140 45.0003125 140 44.3203125 140 C44.3203125 140.66 44.3203125 141.32 44.3203125 142 C43.6603125 142 43.0003125 142 42.3203125 142 C42.3203125 142.66 42.3203125 143.32 42.3203125 144 C41.6603125 144 41.0003125 144 40.3203125 144 C40.3203125 144.66 40.3203125 145.32 40.3203125 146 C39.6603125 146 39.0003125 146 38.3203125 146 C38.3203125 146.66 38.3203125 147.32 38.3203125 148 C37.6603125 148 37.0003125 148 36.3203125 148 C36.3203125 148.66 36.3203125 149.32 36.3203125 150 C34.9453125 151.625 34.9453125 151.625 33.3203125 153 C32.6603125 153 32.0003125 153 31.3203125 153 C31.3203125 153.66 31.3203125 154.32 31.3203125 155 C30.6603125 155 30.0003125 155 29.3203125 155 C29.3203125 155.66 29.3203125 156.32 29.3203125 157 C28.6603125 157 28.0003125 157 27.3203125 157 C27.3203125 157.66 27.3203125 158.32 27.3203125 159 C26.6603125 159 26.0003125 159 25.3203125 159 C25.3203125 159.66 25.3203125 160.32 25.3203125 161 C24.6603125 161 24.0003125 161 23.3203125 161 C23.3203125 161.66 23.3203125 162.32 23.3203125 163 C22.6603125 163 22.0003125 163 21.3203125 163 C21.3203125 163.66 21.3203125 164.32 21.3203125 165 C20.6603125 165 20.0003125 165 19.3203125 165 C19.05734375 165.58394531 18.794375 166.16789063 18.5234375 166.76953125 C15.98517867 171.47519941 12.21197532 175.11454081 7.3828125 177.375 C2.41764733 176.76702059 -0.25951121 173.44826808 -3.6796875 170 C-4.21464844 169.50113281 -4.74960938 169.00226563 -5.30078125 168.48828125 C-6.47832981 167.37744933 -7.58735971 166.19473352 -8.6796875 165 C-8.6796875 164.34 -8.6796875 163.68 -8.6796875 163 C-10.6596875 162.01 -10.6596875 162.01 -12.6796875 161 C-12.6796875 160.34 -12.6796875 159.68 -12.6796875 159 C-13.3396875 159 -13.9996875 159 -14.6796875 159 C-14.6796875 158.34 -14.6796875 157.68 -14.6796875 157 C-15.3396875 157 -15.9996875 157 -16.6796875 157 C-16.6796875 156.34 -16.6796875 155.68 -16.6796875 155 C-17.3396875 155 -17.9996875 155 -18.6796875 155 C-18.6796875 154.34 -18.6796875 153.68 -18.6796875 153 C-19.3396875 153 -19.9996875 153 -20.6796875 153 C-22.3046875 151.625 -22.3046875 151.625 -23.6796875 150 C-23.6796875 149.34 -23.6796875 148.68 -23.6796875 148 C-24.3396875 148 -24.9996875 148 -25.6796875 148 C-25.6796875 147.34 -25.6796875 146.68 -25.6796875 146 C-26.3396875 146 -26.9996875 146 -27.6796875 146 C-27.6796875 145.34 -27.6796875 144.68 -27.6796875 144 C-28.3396875 144 -28.9996875 144 -29.6796875 144 C-29.6796875 143.34 -29.6796875 142.68 -29.6796875 142 C-30.3396875 142 -30.9996875 142 -31.6796875 142 C-31.6796875 141.34 -31.6796875 140.68 -31.6796875 140 C-32.3396875 140 -32.9996875 140 -33.6796875 140 C-33.6796875 139.34 -33.6796875 138.68 -33.6796875 138 C-34.56285645 137.60361328 -34.56285645 137.60361328 -35.46386719 137.19921875 C-37.76041334 135.95631056 -39.28801916 134.64993519 -41.1328125 132.8125 C-41.7515625 132.19632813 -42.3703125 131.58015625 -43.0078125 130.9453125 C-43.64203125 130.30335938 -44.27625 129.66140625 -44.9296875 129 C-45.579375 128.35804688 -46.2290625 127.71609375 -46.8984375 127.0546875 C-47.51203125 126.43851563 -48.125625 125.82234375 -48.7578125 125.1875 C-49.31887695 124.62417969 -49.87994141 124.06085938 -50.45800781 123.48046875 C-51.6796875 122 -51.6796875 122 -51.6796875 120 C-52.3396875 120 -52.9996875 120 -53.6796875 120 C-53.6796875 119.34 -53.6796875 118.68 -53.6796875 118 C-54.3396875 118 -54.9996875 118 -55.6796875 118 C-55.6796875 117.34 -55.6796875 116.68 -55.6796875 116 C-56.3396875 116 -56.9996875 116 -57.6796875 116 C-57.6796875 115.34 -57.6796875 114.68 -57.6796875 114 C-58.3396875 114 -58.9996875 114 -59.6796875 114 C-59.6796875 113.34 -59.6796875 112.68 -59.6796875 112 C-60.3396875 112 -60.9996875 112 -61.6796875 112 C-63.3046875 110.625 -63.3046875 110.625 -64.6796875 109 C-64.6796875 108.34 -64.6796875 107.68 -64.6796875 107 C-65.3396875 107 -65.9996875 107 -66.6796875 107 C-66.6796875 106.34 -66.6796875 105.68 -66.6796875 105 C-67.3396875 105 -67.9996875 105 -68.6796875 105 C-68.6796875 104.34 -68.6796875 103.68 -68.6796875 103 C-69.3396875 103 -69.9996875 103 -70.6796875 103 C-70.6796875 102.34 -70.6796875 101.68 -70.6796875 101 C-71.3396875 101 -71.9996875 101 -72.6796875 101 C-72.6796875 100.34 -72.6796875 99.68 -72.6796875 99 C-73.3396875 99 -73.9996875 99 -74.6796875 99 C-74.6796875 98.34 -74.6796875 97.68 -74.6796875 97 C-75.3396875 97 -75.9996875 97 -76.6796875 97 C-78.3046875 95.625 -78.3046875 95.625 -79.6796875 94 C-79.6796875 93.34 -79.6796875 92.68 -79.6796875 92 C-80.3396875 92 -80.9996875 92 -81.6796875 92 C-81.6796875 91.34 -81.6796875 90.68 -81.6796875 90 C-82.3396875 90 -82.9996875 90 -83.6796875 90 C-83.6796875 89.34 -83.6796875 88.68 -83.6796875 88 C-84.3396875 88 -84.9996875 88 -85.6796875 88 C-85.6796875 87.34 -85.6796875 86.68 -85.6796875 86 C-86.3396875 86 -86.9996875 86 -87.6796875 86 C-92.89892166 79.35383236 -96.27493412 72.0480691 -98.6796875 64 C-98.90527344 63.28585938 -99.13085938 62.57171875 -99.36328125 61.8359375 C-103.26772197 47.45682478 -100.67850635 31.15557136 -93.8671875 18.0625 C-84.52095181 2.49320962 -71.2687021 -7.88948637 -53.7421875 -12.9375 C-33.71865308 -17.18089802 -16.18036996 -11.53809111 0 0 Z M-78.19140625 15.234375 C-86.89855026 25.56411015 -90.00633242 37.62116841 -89.6796875 51 C-87.27792507 72.77751893 -72.07468895 85.79230083 -57.42407227 100.44091797 C-55.58256748 102.28466212 -53.74927997 104.13634723 -51.91601562 105.98828125 C-50.74267424 107.16454823 -49.56886454 108.34034829 -48.39453125 109.515625 C-47.84876938 110.06857239 -47.30300751 110.62151978 -46.7407074 111.19122314 C-44.19168866 114.09152584 -44.19168866 114.09152584 -40.6796875 115 C-40.3496875 115.66 -40.0196875 116.32 -39.6796875 117 C-39.69539795 116.25427734 -39.7111084 115.50855469 -39.72729492 114.74023438 C-39.79006338 111.32690157 -39.82881089 107.91369069 -39.8671875 104.5 C-39.89232422 103.32695312 -39.91746094 102.15390625 -39.94335938 100.9453125 C-40.06254623 86.8018057 -40.06254623 86.8018057 -35.33325195 81.48681641 C-32.36998381 78.84680527 -29.34853174 77.38048038 -25.6796875 76 C-25.68871094 74.79085937 -25.69773438 73.58171875 -25.70703125 72.3359375 C-25.57994703 61.05894552 -24.2046927 52.44558613 -17.6796875 43 C-16.6896875 42.34 -15.6996875 41.68 -14.6796875 41 C-14.6796875 40.34 -14.6796875 39.68 -14.6796875 39 C-13.3803125 38.5978125 -13.3803125 38.5978125 -12.0546875 38.1875 C-8.71167319 37.12855599 -8.71167319 37.12855599 -6.015625 35.45703125 C-1.83900661 33.63281736 1.56325371 33.46597019 6.0703125 33.5 C6.864375 33.50064453 7.6584375 33.50128906 8.4765625 33.50195312 C14.27883158 33.64890602 18.58685219 34.79158731 23.5703125 37.90625 C25.25903137 39.17666631 25.25903137 39.17666631 27.3203125 39 C27.3203125 39.66 27.3203125 40.32 27.3203125 41 C28.0628125 41.70125 28.8053125 42.4025 29.5703125 43.125 C36.73781531 50.6182984 37.44747827 58.71508011 38.0390625 68.6875 C38.28947654 72.44474881 38.28947654 72.44474881 39.3203125 76 C41.05748104 77.45152168 41.05748104 77.45152168 43.1953125 78.5625 C49.73166371 82.24070501 49.73166371 82.24070501 50.88208008 85.67895508 C51.45412146 88.70870296 51.54209445 91.65232634 51.63671875 94.734375 C51.69956055 96.67763672 51.69956055 96.67763672 51.76367188 98.66015625 C51.80347921 100.02343476 51.84319156 101.38671606 51.8828125 102.75 C51.92603524 104.12891875 51.96965071 105.50782526 52.01367188 106.88671875 C52.11975208 110.2577119 52.221811 113.62877826 52.3203125 117 C52.6503125 116.34 52.9803125 115.68 53.3203125 115 C53.9803125 115 54.6403125 115 55.3203125 115 C55.3203125 114.34 55.3203125 113.68 55.3203125 113 C55.9803125 113 56.6403125 113 57.3203125 113 C57.3203125 112.34 57.3203125 111.68 57.3203125 111 C57.87203125 110.773125 58.42375 110.54625 58.9921875 110.3125 C62.00723667 108.61274074 64.13261619 106.45195184 66.5703125 104 C67.46234375 103.113125 68.354375 102.22625 69.2734375 101.3125 C71.54124323 99.26510897 71.54124323 99.26510897 71.3203125 97 C71.9803125 97 72.6403125 97 73.3203125 97 C73.3203125 96.34 73.3203125 95.68 73.3203125 95 C73.9803125 95 74.6403125 95 75.3203125 95 C75.3203125 94.34 75.3203125 93.68 75.3203125 93 C76.3103125 92.67 77.3003125 92.34 78.3203125 92 C78.3203125 91.34 78.3203125 90.68 78.3203125 90 C78.9803125 90 79.6403125 90 80.3203125 90 C80.3203125 89.34 80.3203125 88.68 80.3203125 88 C80.9803125 88 81.6403125 88 82.3203125 88 C82.3203125 87.34 82.3203125 86.68 82.3203125 86 C82.9803125 86 83.6403125 86 84.3203125 86 C84.3203125 85.34 84.3203125 84.68 84.3203125 84 C84.9803125 84 85.6403125 84 86.3203125 84 C86.3203125 83.34 86.3203125 82.68 86.3203125 82 C86.9803125 82 87.6403125 82 88.3203125 82 C88.3203125 81.34 88.3203125 80.68 88.3203125 80 C88.9803125 80 89.6403125 80 90.3203125 80 C98.8836175 68.23681882 103.92481069 55.75216843 102.05859375 40.91992188 C100.52792832 32.1062516 97.67855676 24.24702536 92.3203125 17 C91.7325 16.19046875 91.1446875 15.3809375 90.5390625 14.546875 C82.98879551 5.88001923 71.52116613 -1.23277906 59.99560547 -2.19384766 C57.37244148 -2.33576228 54.75958062 -2.40616582 52.1328125 -2.4375 C51.30120605 -2.44797363 50.46959961 -2.45844727 49.61279297 -2.46923828 C37.86577133 -2.29905916 25.75201652 2.79018293 17.3203125 11 C17.3203125 11.66 17.3203125 12.32 17.3203125 13 C16.6603125 13 16.0003125 13 15.3203125 13 C15.3203125 13.66 15.3203125 14.32 15.3203125 15 C14.6603125 15 14.0003125 15 13.3203125 15 C10.92210945 17.63684747 10.92210945 17.63684747 10.3203125 21 C7.6803125 21 5.0403125 21 2.3203125 21 C1.918125 20.13375 1.918125 20.13375 1.5078125 19.25 C0.29102061 16.94449957 -0.98302629 14.97943808 -2.6796875 13 C-3.3396875 13 -3.9996875 13 -4.6796875 13 C-4.6796875 12.34 -4.6796875 11.68 -4.6796875 11 C-12.78247964 2.68783339 -24.97253192 -2.04396599 -36.44555664 -2.29296875 C-53.8326243 -2.42007881 -66.0381955 2.35603235 -78.19140625 15.234375 Z M-6.6796875 47 C-6.6796875 47.66 -6.6796875 48.32 -6.6796875 49 C-7.6696875 49.33 -8.6596875 49.66 -9.6796875 50 C-16.3978955 58.55044655 -15.6796875 64.83495525 -15.6796875 76 C-1.1596875 76 13.3603125 76 28.3203125 76 C28.55416208 61.09229698 28.55416208 61.09229698 21.3203125 49 C20.6603125 49 20.0003125 49 19.3203125 49 C19.3203125 48.34 19.3203125 47.68 19.3203125 47 C8.95399011 42.4109561 3.68663489 42.4109561 -6.6796875 47 Z M-28.6796875 90 C-30.36544031 95.73611564 -30.7555728 101.60748061 -31.0546875 107.5625 C-31.09948242 108.42360382 -31.14427734 109.28470764 -31.19042969 110.17190552 C-31.57306954 123.58029538 -27.98858017 131.80441524 -18.83944702 141.54960632 C-11.2462838 149.19962649 -3.10685659 156.28621848 5.3203125 163 C6.3103125 162.67 7.3003125 162.34 8.3203125 162 C8.3203125 161.34 8.3203125 160.68 8.3203125 160 C8.9803125 160 9.6403125 160 10.3203125 160 C10.3203125 159.34 10.3203125 158.68 10.3203125 158 C10.9803125 158 11.6403125 158 12.3203125 158 C12.3203125 157.34 12.3203125 156.68 12.3203125 156 C12.9803125 156 13.6403125 156 14.3203125 156 C14.3203125 155.34 14.3203125 154.68 14.3203125 154 C14.9090918 153.73574219 15.49787109 153.47148437 16.10449219 153.19921875 C18.40103834 151.95631056 19.92864416 150.64993519 21.7734375 148.8125 C22.3921875 148.19632813 23.0109375 147.58015625 23.6484375 146.9453125 C24.28265625 146.30335938 24.916875 145.66140625 25.5703125 145 C26.22 144.35804688 26.8696875 143.71609375 27.5390625 143.0546875 C28.45945312 142.13042969 28.45945312 142.13042969 29.3984375 141.1875 C29.95950195 140.62417969 30.52056641 140.06085938 31.09863281 139.48046875 C32.53247042 138.06280891 32.53247042 138.06280891 32.3203125 136 C32.9596875 135.731875 33.5990625 135.46375 34.2578125 135.1875 C36.65162936 134.11332248 36.65162936 134.11332248 37.3203125 131 C37.9803125 131 38.6403125 131 39.3203125 131 C39.3203125 130.34 39.3203125 129.68 39.3203125 129 C39.9803125 129 40.6403125 129 41.3203125 129 C41.41913036 123.50078594 41.49175629 118.00208765 41.54003906 112.50219727 C41.56016457 110.63101196 41.58746799 108.75988961 41.62207031 106.88891602 C41.67054831 104.20052568 41.69327122 101.51296612 41.7109375 98.82421875 C41.73158264 97.98662521 41.75222778 97.14903168 41.77349854 96.28605652 C41.89272801 91.87329137 41.89272801 91.87329137 39.67205811 88.27922058 C36.6869908 86.65550774 34.63186062 86.61931285 31.23828125 86.61181641 C30.01020752 86.60235992 28.78213379 86.59290344 27.5168457 86.5831604 C26.18049801 86.58853029 24.84415327 86.59468329 23.5078125 86.6015625 C22.13305507 86.59954068 20.75829869 86.59662833 19.38354492 86.59286499 C16.50526701 86.58844668 13.62726879 86.59485645 10.74902344 86.60888672 C7.06344844 86.62597877 3.37852887 86.61613488 -0.30702209 86.59816933 C-3.14494751 86.58731791 -5.98271806 86.59078396 -8.82064819 86.5985527 C-10.17939329 86.60055098 -11.53815254 86.59810851 -12.8968811 86.59111404 C-14.79713667 86.58347819 -16.69744167 86.59718427 -18.59765625 86.61181641 C-19.67813232 86.61420319 -20.7586084 86.61658997 -21.87182617 86.61904907 C-25.0605869 87.05167776 -26.42096412 87.73445312 -28.6796875 90 Z " fill="#E5E6E5" transform="translate(243.6796875,168)"/>
<path d="M0 0 C0.845625 0.70125 1.69125 1.4025 2.5625 2.125 C2.5625 2.785 2.5625 3.445 2.5625 4.125 C3.2225 4.125 3.8825 4.125 4.5625 4.125 C5.79726938 7.82930813 6.00842097 11.27042886 5.5625 15.125 C4.125 17.875 4.125 17.875 2.5625 20.125 C1.07492775 24.45335539 1.63092074 28.84124637 1.8203125 33.34765625 C1.5625 36.125 1.5625 36.125 0.4296875 37.96875 C-2.23333535 39.61781854 -4.32556412 39.55868635 -7.4375 39.5625 C-9.0153125 39.59150391 -9.0153125 39.59150391 -10.625 39.62109375 C-13.4375 39.125 -13.4375 39.125 -15.3125 37.5390625 C-16.84915806 34.2416504 -16.62000494 31.67837908 -16.4375 28.0625 C-15.94176944 23.36107339 -15.94176944 23.36107339 -17.875 19.37890625 C-18.390625 18.96511719 -18.90625 18.55132812 -19.4375 18.125 C-20.32964652 15.44856043 -20.57290211 13.87115622 -20.5625 11.125 C-20.56507813 10.444375 -20.56765625 9.76375 -20.5703125 9.0625 C-20.4375 7.125 -20.4375 7.125 -19.4375 4.125 C-18.7775 4.125 -18.1175 4.125 -17.4375 4.125 C-17.210625 3.50625 -16.98375 2.8875 -16.75 2.25 C-13.12545998 -3.61830289 -5.36864513 -2.92835189 0 0 Z M-10.125 8.625 C-10.558125 9.12 -10.99125 9.615 -11.4375 10.125 C-10.64632096 12.12483534 -10.64632096 12.12483534 -9.4375 14.125 C-8.4475 14.455 -7.4575 14.785 -6.4375 15.125 C-5.4475 14.135 -4.4575 13.145 -3.4375 12.125 C-4.0975 10.475 -4.7575 8.825 -5.4375 7.125 C-8.44009517 6.79281808 -8.44009517 6.79281808 -10.125 8.625 Z " fill="#E0E0DF" transform="translate(257.4375,265.875)"/>
<path d="M0 0 C0.99 0.33 1.98 0.66 3 1 C1.6875 3 1.6875 3 0 5 C-0.99 5 -1.98 5 -3 5 C-3 5.99 -3 6.98 -3 8 C-3.66 7.67 -4.32 7.34 -5 7 C-4.67 6.01 -4.34 5.02 -4 4 C-3.34 4 -2.68 4 -2 4 C-1.34 2.68 -0.68 1.36 0 0 Z " fill="#999996" transform="translate(242,266)"/>
<path d="M0 0 C0 3 0 3 -1.375 4.6875 C-3 6 -3 6 -5 6 C-5 6.66 -5 7.32 -5 8 C-5.66 7.67 -6.32 7.34 -7 7 C-5.625 5 -5.625 5 -4 3 C-3.34 3 -2.68 3 -2 3 C-2 2.34 -2 1.68 -2 1 C-1.34 0.67 -0.68 0.34 0 0 Z " fill="#9B9B9B" transform="translate(231,206)"/>
<path d="M0 0 C1.65 0.33 3.3 0.66 5 1 C5.33 2.32 5.66 3.64 6 5 C5.01 4.67 4.02 4.34 3 4 C3 3.34 3 2.68 3 2 C1.35 2.66 -0.3 3.32 -2 4 C-1.34 2.68 -0.68 1.36 0 0 Z " fill="#B2B2B1" transform="translate(249,271)"/>
</svg>
